<svg xmlns="http://www.w3.org/2000/svg" viewBox="0 0 1280 800" font-family="Inter, system-ui, sans-serif">
  <rect width="1280" height="800" fill="#0b0f17"/>

  <!-- sidebar -->
  <rect x="0" y="0" width="224" height="800" fill="#0f1623"/>
  <rect x="223" y="0" width="1" height="800" fill="#1f2937" opacity="0.6"/>
  <circle cx="36" cy="36" r="14" fill="#fbbf24"/><circle cx="36" cy="36" r="5" fill="#0b0f17"/>
  <text x="60" y="34" fill="#e7eef8" font-size="16" font-weight="600">Lighthouse</text>
  <g font-size="13">
    <text x="56" y="106" fill="#94a3b8">Overview</text>
    <text x="56" y="138" fill="#94a3b8">Subscriptions</text>
    <rect x="12" y="148" width="200" height="36" rx="8" fill="#243044"/>
    <text x="56" y="170" fill="#e7eef8">Receipts</text>
    <text x="56" y="202" fill="#94a3b8">Alerts</text>
    <rect x="180" y="190" width="22" height="18" rx="9" fill="#fda4af" opacity="0.2"/>
    <text x="186" y="203" fill="#fda4af" font-size="11" font-weight="600">3</text>
    <text x="56" y="234" fill="#94a3b8">Settings</text>
  </g>

  <!-- header -->
  <text x="256" y="50" fill="#e7eef8" font-size="22" font-weight="600">Receipts</text>
  <text x="256" y="74" fill="#94a3b8" font-size="13">Every receipt extracted from your inbox. 421 found.</text>
  <line x1="256" y1="100" x2="1248" y2="100" stroke="#1f2937" opacity="0.4"/>

  <!-- filters -->
  <g>
    <rect x="256" y="120" width="280" height="36" rx="8" fill="#0f1623" stroke="#1f2937"/>
    <circle cx="276" cy="138" r="6" fill="none" stroke="#94a3b8" stroke-width="1.5"/>
    <line x1="280" y1="142" x2="285" y2="147" stroke="#94a3b8" stroke-width="1.5"/>
    <text x="300" y="142" fill="#94a3b8" font-size="13">Search merchant or order #</text>

    <rect x="544" y="120" width="160" height="36" rx="8" fill="#0f1623" stroke="#1f2937"/>
    <text x="560" y="142" fill="#e7eef8" font-size="13">All merchants</text>
    <path d="M688 134 L692 138 L696 134" stroke="#94a3b8" stroke-width="1.5" fill="none"/>

    <rect x="712" y="120" width="140" height="36" rx="8" fill="#0f1623" stroke="#1f2937"/>
    <text x="728" y="142" fill="#e7eef8" font-size="13">Apr 1, 2025</text>
    <text x="864" y="142" fill="#94a3b8" font-size="11">to</text>
    <rect x="884" y="120" width="140" height="36" rx="8" fill="#0f1623" stroke="#1f2937"/>
    <text x="900" y="142" fill="#e7eef8" font-size="13">Apr 25, 2026</text>

    <text x="1248" y="142" fill="#94a3b8" font-size="11" text-anchor="end">421 total · showing 1–10</text>
  </g>

  <!-- table -->
  <g>
    <rect x="256" y="180" width="992" height="544" rx="16" fill="#131a26" stroke="#1f2937"/>
    <rect x="256" y="180" width="992" height="44" rx="0" fill="#0f1623" opacity="0.5"/>
    <line x1="256" y1="224" x2="1248" y2="224" stroke="#1f2937"/>
    <g font-size="10" letter-spacing="1.2" fill="#94a3b8">
      <text x="284" y="208">DATE</text>
      <text x="424" y="208">MERCHANT</text>
      <text x="664" y="208">ORDER #</text>
      <text x="864" y="208">PAYMENT</text>
      <text x="1100" y="208" text-anchor="end">AMOUNT</text>
      <text x="1228" y="208" text-anchor="end">CONFIDENCE</text>
    </g>

    <g font-size="13">
      <!-- Row template -->
      <line x1="256" y1="264" x2="1248" y2="264" stroke="#1f2937" opacity="0.4"/>
      <text x="284" y="252" fill="#94a3b8">Apr 24, 2026</text>
      <rect x="424" y="240" width="22" height="22" rx="4" fill="#fb923c" opacity="0.2"/>
      <text x="435" y="256" fill="#fdba74" font-size="11" font-weight="600" text-anchor="middle">AM</text>
      <text x="456" y="256" fill="#e7eef8">Amazon</text>
      <text x="664" y="256" fill="#94a3b8" font-family="JetBrains Mono, monospace" font-size="11">ORD-3F8A2C</text>
      <text x="864" y="256" fill="#94a3b8" font-size="11">Visa ending in 4242</text>
      <text x="1100" y="256" fill="#e7eef8" font-weight="500" text-anchor="end">$42.99</text>
      <rect x="1186" y="244" width="50" height="18" rx="9" fill="#10b981" opacity="0.1"/>
      <text x="1211" y="256" fill="#34d399" font-size="10" text-anchor="middle">95%</text>

      <line x1="256" y1="304" x2="1248" y2="304" stroke="#1f2937" opacity="0.4"/>
      <text x="284" y="292" fill="#94a3b8">Apr 23, 2026</text>
      <rect x="424" y="280" width="22" height="22" rx="4" fill="#a78bfa" opacity="0.2"/>
      <text x="435" y="296" fill="#c4b5fd" font-size="11" font-weight="600" text-anchor="middle">DD</text>
      <text x="456" y="296" fill="#e7eef8">DoorDash</text>
      <text x="664" y="296" fill="#94a3b8" font-family="JetBrains Mono, monospace" font-size="11">ORD-7E1D9B</text>
      <text x="864" y="296" fill="#94a3b8" font-size="11">Visa ending in 4242</text>
      <text x="1100" y="296" fill="#e7eef8" font-weight="500" text-anchor="end">$28.77</text>
      <rect x="1186" y="284" width="50" height="18" rx="9" fill="#10b981" opacity="0.1"/>
      <text x="1211" y="296" fill="#34d399" font-size="10" text-anchor="middle">92%</text>

      <line x1="256" y1="344" x2="1248" y2="344" stroke="#1f2937" opacity="0.4"/>
      <text x="284" y="332" fill="#94a3b8">Apr 22, 2026</text>
      <rect x="424" y="320" width="22" height="22" rx="4" fill="#22d3ee" opacity="0.2"/>
      <text x="435" y="336" fill="#67e8f9" font-size="11" font-weight="600" text-anchor="middle">NE</text>
      <text x="456" y="336" fill="#e7eef8">Netflix</text>
      <text x="664" y="336" fill="#94a3b8" font-family="JetBrains Mono, monospace" font-size="11">INV-A0B12F</text>
      <text x="864" y="336" fill="#94a3b8" font-size="11">Visa ending in 4242</text>
      <text x="1100" y="336" fill="#e7eef8" font-weight="500" text-anchor="end">$22.99</text>
      <rect x="1186" y="324" width="50" height="18" rx="9" fill="#10b981" opacity="0.1"/>
      <text x="1211" y="336" fill="#34d399" font-size="10" text-anchor="middle">95%</text>

      <line x1="256" y1="384" x2="1248" y2="384" stroke="#1f2937" opacity="0.4"/>
      <text x="284" y="372" fill="#94a3b8">Apr 21, 2026</text>
      <rect x="424" y="360" width="22" height="22" rx="4" fill="#34d399" opacity="0.2"/>
      <text x="435" y="376" fill="#6ee7b7" font-size="11" font-weight="600" text-anchor="middle">UB</text>
      <text x="456" y="376" fill="#e7eef8">Uber</text>
      <text x="664" y="376" fill="#94a3b8" font-family="JetBrains Mono, monospace" font-size="11">ORD-B82D50</text>
      <text x="864" y="376" fill="#94a3b8" font-size="11">Visa ending in 4242</text>
      <text x="1100" y="376" fill="#e7eef8" font-weight="500" text-anchor="end">$16.12</text>
      <rect x="1186" y="364" width="50" height="18" rx="9" fill="#10b981" opacity="0.1"/>
      <text x="1211" y="376" fill="#34d399" font-size="10" text-anchor="middle">88%</text>

      <line x1="256" y1="424" x2="1248" y2="424" stroke="#1f2937" opacity="0.4"/>
      <text x="284" y="412" fill="#94a3b8">Apr 20, 2026</text>
      <rect x="424" y="400" width="22" height="22" rx="4" fill="#fb923c" opacity="0.2"/>
      <text x="435" y="416" fill="#fdba74" font-size="11" font-weight="600" text-anchor="middle">AM</text>
      <text x="456" y="416" fill="#e7eef8">Amazon</text>
      <text x="664" y="416" fill="#94a3b8" font-family="JetBrains Mono, monospace" font-size="11">ORD-1A2B3C</text>
      <text x="864" y="416" fill="#94a3b8" font-size="11">Visa ending in 4242</text>
      <text x="1100" y="416" fill="#e7eef8" font-weight="500" text-anchor="end">$67.43</text>
      <rect x="1186" y="404" width="50" height="18" rx="9" fill="#10b981" opacity="0.1"/>
      <text x="1211" y="416" fill="#34d399" font-size="10" text-anchor="middle">94%</text>

      <line x1="256" y1="464" x2="1248" y2="464" stroke="#1f2937" opacity="0.4"/>
      <text x="284" y="452" fill="#94a3b8">Apr 19, 2026</text>
      <rect x="424" y="440" width="22" height="22" rx="4" fill="#94a3b8" opacity="0.2"/>
      <text x="435" y="456" fill="#cbd5e1" font-size="11" font-weight="600" text-anchor="middle">ST</text>
      <text x="456" y="456" fill="#e7eef8">Starbucks</text>
      <text x="664" y="456" fill="#94a3b8" font-family="JetBrains Mono, monospace" font-size="11">ORD-9F4E7D</text>
      <text x="864" y="456" fill="#94a3b8" font-size="11">Apple Pay</text>
      <text x="1100" y="456" fill="#e7eef8" font-weight="500" text-anchor="end">$6.42</text>
      <rect x="1186" y="444" width="50" height="18" rx="9" fill="#fbbf24" opacity="0.1"/>
      <text x="1211" y="456" fill="#fbbf24" font-size="10" text-anchor="middle">72%</text>

      <line x1="256" y1="504" x2="1248" y2="504" stroke="#1f2937" opacity="0.4"/>
      <text x="284" y="492" fill="#94a3b8">Apr 18, 2026</text>
      <rect x="424" y="480" width="22" height="22" rx="4" fill="#f9a8d4" opacity="0.2"/>
      <text x="435" y="496" fill="#fbcfe8" font-size="11" font-weight="600" text-anchor="middle">AP</text>
      <text x="456" y="496" fill="#e7eef8">Apple</text>
      <text x="664" y="496" fill="#94a3b8" font-family="JetBrains Mono, monospace" font-size="11">INV-C84A2D</text>
      <text x="864" y="496" fill="#94a3b8" font-size="11">Apple Pay</text>
      <text x="1100" y="496" fill="#e7eef8" font-weight="500" text-anchor="end">$9.99</text>
      <rect x="1186" y="484" width="50" height="18" rx="9" fill="#10b981" opacity="0.1"/>
      <text x="1211" y="496" fill="#34d399" font-size="10" text-anchor="middle">96%</text>

      <line x1="256" y1="544" x2="1248" y2="544" stroke="#1f2937" opacity="0.4"/>
      <text x="284" y="532" fill="#94a3b8">Apr 16, 2026</text>
      <rect x="424" y="520" width="22" height="22" rx="4" fill="#67e8f9" opacity="0.2"/>
      <text x="435" y="536" fill="#a5f3fc" font-size="11" font-weight="600" text-anchor="middle">AI</text>
      <text x="456" y="536" fill="#e7eef8">Airbnb</text>
      <text x="664" y="536" fill="#94a3b8" font-family="JetBrains Mono, monospace" font-size="11">ORD-2D7F1C</text>
      <text x="864" y="536" fill="#94a3b8" font-size="11">Visa ending in 4242</text>
      <text x="1100" y="536" fill="#e7eef8" font-weight="500" text-anchor="end">$189.00</text>
      <rect x="1186" y="524" width="50" height="18" rx="9" fill="#10b981" opacity="0.1"/>
      <text x="1211" y="536" fill="#34d399" font-size="10" text-anchor="middle">98%</text>
    </g>
  </g>

  <!-- pagination -->
  <g>
    <text x="256" y="752" fill="#94a3b8" font-size="13">Page 1 of 43</text>
    <rect x="1100" y="736" width="80" height="32" rx="8" fill="#0f1623" stroke="#1f2937"/>
    <text x="1140" y="755" fill="#94a3b8" font-size="13" text-anchor="middle">Previous</text>
    <rect x="1186" y="736" width="62" height="32" rx="8" fill="#0f1623" stroke="#1f2937"/>
    <text x="1217" y="755" fill="#e7eef8" font-size="13" text-anchor="middle">Next</text>
  </g>
</svg>
